<svg xmlns="http://www.w3.org/2000/svg" viewBox="0 0 366.17 360.04"><defs><style>.cls-2{fill:#564181}.cls-3{fill:#222625}</style></defs><g id="Layer_5" data-name="Layer 5"><path d="M158.58 41.81s25.41-19.55 84-5.87S341.35 73.08 356 99.47s15.64 74.33-12.71 111-90.89 77.67-101.64 94.29-94.81 3.91-111.42-5.86-35.19-45-45-79.17-11.73-132.92 0-139.77 73.35-38.15 73.35-38.15z" transform="translate(.08 .33)" fill="#b068a7"/><path class="cls-2" d="M-.08 16.5V123c15.55-13.84 34.86-32.81 34.32-48.41C33.74 60 10.54 27.46-.08 16.5z" transform="translate(.08 .33)"/></g><g id="Layer_7_copy" data-name="Layer 7 copy"><circle class="cls-3" cx="272.85" cy="53.05" r="2.83"/><circle class="cls-3" cx="290.57" cy="68.07" r="2.83"/><circle class="cls-3" cx="261.57" cy="90.07" r="2.83"/><circle class="cls-3" cx="267.57" cy="123.07" r="2.83"/><circle class="cls-3" cx="239.57" cy="123.07" r="2.83"/><circle class="cls-3" cx="243.57" cy="43.07" r="2.83"/><circle class="cls-3" cx="231.57" cy="35.07" r="2.83"/><circle class="cls-3" cx="230.57" cy="70.07" r="2.83"/><circle class="cls-3" cx="208.57" cy="44.07" r="2.83"/><circle class="cls-3" cx="191.57" cy="38.07" r="2.83"/><circle class="cls-3" cx="197.57" cy="63.07" r="2.83"/><circle class="cls-3" cx="172.64" cy="53.05" r="2.83"/><circle class="cls-3" cx="211.4" cy="75.74" r="2.83"/><circle class="cls-3" cx="174.23" cy="72.91" r="2.83"/><circle class="cls-3" cx="207.73" cy="104.13" r="2.83"/><circle class="cls-3" cx="192.89" cy="90.07" r="2.83"/><circle class="cls-3" cx="177.06" cy="120.24" r="2.83"/><circle class="cls-3" cx="166.97" cy="98.46" r="2.83"/><circle class="cls-3" cx="190.06" cy="128.74" r="2.83"/><circle class="cls-3" cx="224.9" cy="165.71" r="2.83"/><path class="cls-2" d="M192.29-.33H12.2c18.3 23.46 49.35 69.3 36 95.39C36 118.9 13.8 135.47.14 144L0 177.51c24.09-.92 93.57 45.4 54.66 81.53 88 13 112.1-78.75 109.32-111.17s.93-101.91 11.12-126z" transform="translate(.08 .33)"/><path d="M64.07 212.28c-.92-19.46-43.54-34.28-61.14-40.77l-3 .6V359.7l22.33-4c11-9.26 18.66-34.08 23.29-44.27s14.83-22.24 12.05-26.87-.93-19.46 6.48-30.57.92-22.26-.01-41.71z" transform="translate(.08 .33)" fill="#f6debb"/></g><path d="M45.3 228.49c21.31-12.6 39.69-13.9 50.55 2.61s9.19 33.44 0 37.79-43.45 7.82-48.88 0-10.44-17.38-9.19-26.07a26.26 26.26 0 017.52-14.33z" fill="none" stroke="#1d1d1b" stroke-miterlimit="10" stroke-width="2" id="Layer_6" data-name="Layer 6"/></svg>