<svg id="Layer_1" data-name="Layer 1" xmlns="http://www.w3.org/2000/svg" viewBox="0 0 393.14 91.82"><defs><style>.cls-1{fill:#b067a7}</style></defs><path class="cls-1" d="M157 6.55c.68-2.19 1.32-4.39 1.92-6.55H17.33c19 22.88 67.53 75.57 113.59 79.75 28.58 2.6-3.81-19.89 12.05-41.84 5.79-8.02 10.46-19.73 14.03-31.36z" transform="translate(-17.33 .23)"/><path d="M260.47 0H127.38a49.83 49.83 0 003.86 16.71C148.18 58.41 229.63 85.13 240.7 91s11.08-33.23 10.43-47.56c-.47-10.31 5.78-32.02 9.34-43.44z" transform="translate(-17.33 .23)" fill="#eb5d53"/><path class="cls-1" d="M394.69 4.46a89.82 89.82 0 01-20-4.46h-99.03c6.88 7.53 21.49 18.9 27.38 21.84 7.82 3.91 6.08 15.42 13.9 23.24s22.91 13.25 31.71 13.25 28-8.34 47.52-17.14 19.05-34.77-1.48-36.73z" transform="translate(-17.33 .23)"/><path d="M275.65 0c-.16 7.21-1.17 14.61-7 20.13-15 14.12-47.38 24.57-78.73 24.57-22.22 0-38.46-1.74-53.7-9.54-14.75-7.54-28.8-22.33-31.4-35.29" transform="translate(-17.33 .23)" fill="none" stroke="#1d1d1b" stroke-miterlimit="10"/></svg>