<svg data-name="Layer 1" xmlns="http://www.w3.org/2000/svg" viewBox="0 0 431.73 95.09"><circle cx="225.95" cy="87.47" r="2.32" fill="#1d1d1b"/><path d="M429.33 94.94s2.4-7.8 2.4-10.09-2.61-14.33-3.26-21.5 3.91-3.26-13-16.94S362 19.7 358.1 28.17 336 50.89 330.08 62c-4.62 8.76-14.49 21.53-15.6 32.93z" fill="#564181"/><path d="M365.9 94.94c-13.82-24.44-41-58.95-41-58.95C308 15.79 288.38-1.81 269.48.15c0 0-21.5 13-25.41 15.64S227.78 39.2 212.8 41.15s-24.8 9.17-26.07 15.69c-.73 3.67 4.53 22.41 9.26 38.1z" fill="#b16aa8"/><path d="M219.58 94.94a4.32 4.32 0 00-.27-1C210.84 72.47 190 74 180.22 70.52s-27.37-25.41-41.7-25.41-16.29 7.17-16.29 7.17-10.43-19.55-14.34-26.8S96.81 3.41 82.48 4.09 64.24 9.92 51.86 19.7 24.49 49 18.62 67a45.27 45.27 0 00.35 28z" fill="#f6dfbc"/><path d="M14.29 94.94c.53-15.48 4.1-31 12.89-35.68 5.25-2.81 19.64-9.59 28.47 1.75 5.53 7.11 9.22 20.21 10.77 33.93h16c3.06-27.19-17.27-47.16-17.27-47.16-10.43-11.66-19.81-10.49-40.66-6.58C5.65 44.73-.42 72.74 0 94.94z" fill="#86b4e1"/><path d="M135.91 95.05c0-11.37 1-30.93 7.79-39.7 11.36-14.6 30.6-24.21 52.41-24.21 21.34 0 35.21 10.19 46.66 24.26 7.27 8.95 10.55 18.87 10.55 30.65a60.49 60.49 0 01-.66 8.89" fill="none" stroke="#1d1d1b" stroke-miterlimit="10" stroke-width="2"/></svg>