<svg data-name="Layer 1" xmlns="http://www.w3.org/2000/svg" viewBox="0 0 223.93 300"><path d="M223.91 110.89a50 50 0 00-5.21-1.82c-43-12.38-58-48.87-63.86-55.38S135.95 9.38 129.43 3.52 94.24.89 94.24.89L78.61 6.1c-15.64 5.22-22.16 47.57-23.46 54.74s-15 16.94-18.24 23.45-11.08 26.72-13 33.23-19.54 28-22.15 35.84-1.95 18.9 0 26.06 8.47 57.34 10.43 69.07 19.54 26.72 27.36 30.63 81.45 21.5 97.09 20.85 43-27.37 49.52-31.93 9.77-20.85 9.77-36.49 17.59-18.24 19.55-20.2c.76-.76 4.31-1.73 8.47-3.2z" fill="#f8ddc0"/><path d="M223.91 80.52c-20.67-.28-63.58-.63-69.72 1.18-16.61 4.88-33.23 17.59-34.53 24.11s-.65 34.53 0 41.05 13 18.28 28 20.24c9.88 1.29 50 2.27 76.24 2.8z" fill="#b269a8"/><path d="M223.75 210.78c-13.63 0-36.91-6.16-45.55-16-7.91-9-6.75-21.14-6.75-34.48 0-27.87 21.17-37.23 47.3-37.23 1.75 0 3.49 0 5.19.13" fill="none" stroke="#1d1d1b" stroke-miterlimit="10"/></svg>